<svg width="280" height="280" viewBox="0 0 280 280" fill="none" xmlns="http://www.w3.org/2000/svg">
<rect x="5" y="5" width="270" height="270" rx="135" fill="#DCFEFE"/>
<rect x="5" y="5" width="270" height="270" rx="135" stroke="#009AFF" stroke-width="9"/>
<path d="M112.241 135V111.727H117.162V130.943H127.139V135H112.241ZM138.193 135.341C136.428 135.341 134.902 134.966 133.614 134.216C132.333 133.458 131.345 132.405 130.648 131.057C129.951 129.701 129.602 128.129 129.602 126.341C129.602 124.538 129.951 122.962 130.648 121.614C131.345 120.258 132.333 119.205 133.614 118.455C134.902 117.697 136.428 117.318 138.193 117.318C139.958 117.318 141.481 117.697 142.761 118.455C144.049 119.205 145.042 120.258 145.739 121.614C146.436 122.962 146.784 124.538 146.784 126.341C146.784 128.129 146.436 129.701 145.739 131.057C145.042 132.405 144.049 133.458 142.761 134.216C141.481 134.966 139.958 135.341 138.193 135.341ZM138.216 131.591C139.019 131.591 139.689 131.364 140.227 130.909C140.765 130.447 141.17 129.818 141.443 129.023C141.723 128.227 141.864 127.322 141.864 126.307C141.864 125.292 141.723 124.386 141.443 123.591C141.17 122.795 140.765 122.167 140.227 121.705C139.689 121.242 139.019 121.011 138.216 121.011C137.405 121.011 136.723 121.242 136.17 121.705C135.625 122.167 135.212 122.795 134.932 123.591C134.659 124.386 134.523 125.292 134.523 126.307C134.523 127.322 134.659 128.227 134.932 129.023C135.212 129.818 135.625 130.447 136.17 130.909C136.723 131.364 137.405 131.591 138.216 131.591ZM152.938 135L148.188 117.545H153.085L155.79 129.273H155.949L158.767 117.545H163.574L166.438 129.205H166.585L169.244 117.545H174.131L169.392 135H164.267L161.267 124.023H161.051L158.051 135H152.938ZM76.3054 150.727L81.9304 168.409H82.1463L87.7827 150.727H93.2372L85.2145 174H78.8736L70.8395 150.727H76.3054ZM95.9474 174V156.545H100.788V174H95.9474ZM98.3793 154.295C97.6596 154.295 97.0421 154.057 96.527 153.58C96.0194 153.095 95.7656 152.515 95.7656 151.841C95.7656 151.174 96.0194 150.602 96.527 150.125C97.0421 149.64 97.6596 149.398 98.3793 149.398C99.099 149.398 99.7126 149.64 100.22 150.125C100.735 150.602 100.993 151.174 100.993 151.841C100.993 152.515 100.735 153.095 100.22 153.58C99.7126 154.057 99.099 154.295 98.3793 154.295ZM104.757 174V150.727H109.598V159.477H109.746C109.958 159.008 110.265 158.53 110.666 158.045C111.075 157.553 111.606 157.144 112.257 156.818C112.916 156.485 113.734 156.318 114.712 156.318C115.984 156.318 117.159 156.652 118.234 157.318C119.31 157.977 120.17 158.973 120.814 160.307C121.458 161.633 121.78 163.295 121.78 165.295C121.78 167.242 121.465 168.886 120.837 170.227C120.215 171.561 119.367 172.572 118.291 173.261C117.223 173.943 116.026 174.284 114.7 174.284C113.761 174.284 112.962 174.129 112.303 173.818C111.651 173.508 111.117 173.117 110.7 172.648C110.284 172.17 109.965 171.689 109.746 171.205H109.53V174H104.757ZM109.496 165.273C109.496 166.311 109.64 167.216 109.928 167.989C110.215 168.761 110.632 169.364 111.178 169.795C111.723 170.22 112.386 170.432 113.166 170.432C113.954 170.432 114.621 170.216 115.166 169.784C115.712 169.345 116.125 168.739 116.405 167.966C116.693 167.186 116.837 166.288 116.837 165.273C116.837 164.265 116.696 163.379 116.416 162.614C116.136 161.848 115.723 161.25 115.178 160.818C114.632 160.386 113.962 160.17 113.166 160.17C112.378 160.17 111.712 160.379 111.166 160.795C110.628 161.212 110.215 161.803 109.928 162.568C109.64 163.333 109.496 164.235 109.496 165.273ZM125.01 174V156.545H129.703V159.591H129.885C130.203 158.508 130.737 157.689 131.487 157.136C132.237 156.576 133.101 156.295 134.078 156.295C134.321 156.295 134.582 156.311 134.862 156.341C135.143 156.371 135.389 156.413 135.601 156.466V160.761C135.374 160.693 135.059 160.633 134.658 160.58C134.256 160.527 133.889 160.5 133.555 160.5C132.843 160.5 132.207 160.655 131.646 160.966C131.093 161.269 130.654 161.693 130.328 162.239C130.01 162.784 129.851 163.413 129.851 164.125V174H125.01ZM142.581 174.33C141.467 174.33 140.475 174.136 139.604 173.75C138.732 173.356 138.043 172.777 137.536 172.011C137.036 171.239 136.786 170.277 136.786 169.125C136.786 168.155 136.964 167.341 137.32 166.682C137.676 166.023 138.161 165.492 138.774 165.091C139.388 164.689 140.085 164.386 140.865 164.182C141.653 163.977 142.479 163.833 143.342 163.75C144.357 163.644 145.176 163.545 145.797 163.455C146.418 163.356 146.869 163.212 147.149 163.023C147.429 162.833 147.57 162.553 147.57 162.182V162.114C147.57 161.394 147.342 160.837 146.888 160.443C146.441 160.049 145.804 159.852 144.979 159.852C144.107 159.852 143.414 160.045 142.899 160.432C142.384 160.811 142.043 161.288 141.876 161.864L137.399 161.5C137.626 160.439 138.073 159.523 138.74 158.75C139.407 157.97 140.267 157.371 141.32 156.955C142.38 156.53 143.607 156.318 145.001 156.318C145.971 156.318 146.899 156.432 147.786 156.659C148.679 156.886 149.471 157.239 150.161 157.716C150.857 158.193 151.407 158.807 151.808 159.557C152.21 160.299 152.411 161.189 152.411 162.227V174H147.82V171.58H147.683C147.403 172.125 147.028 172.606 146.558 173.023C146.089 173.432 145.524 173.754 144.865 173.989C144.206 174.216 143.445 174.33 142.581 174.33ZM143.967 170.989C144.679 170.989 145.308 170.848 145.854 170.568C146.399 170.28 146.827 169.894 147.138 169.409C147.448 168.924 147.604 168.375 147.604 167.761V165.909C147.452 166.008 147.244 166.098 146.979 166.182C146.721 166.258 146.429 166.33 146.104 166.398C145.778 166.458 145.452 166.515 145.126 166.568C144.801 166.614 144.505 166.655 144.24 166.693C143.672 166.777 143.176 166.909 142.751 167.091C142.327 167.273 141.998 167.519 141.763 167.83C141.528 168.133 141.411 168.511 141.411 168.966C141.411 169.625 141.649 170.129 142.126 170.477C142.611 170.818 143.225 170.989 143.967 170.989ZM165.45 156.545V160.182H154.939V156.545H165.45ZM157.325 152.364H162.166V168.636C162.166 169.083 162.234 169.432 162.371 169.682C162.507 169.924 162.696 170.095 162.939 170.193C163.189 170.292 163.477 170.341 163.803 170.341C164.03 170.341 164.257 170.322 164.484 170.284C164.712 170.239 164.886 170.205 165.007 170.182L165.768 173.784C165.526 173.86 165.185 173.947 164.746 174.045C164.306 174.152 163.772 174.216 163.143 174.239C161.977 174.284 160.954 174.129 160.075 173.773C159.204 173.417 158.526 172.864 158.041 172.114C157.556 171.364 157.318 170.417 157.325 169.273V152.364ZM168.604 174V156.545H173.445V174H168.604ZM171.036 154.295C170.316 154.295 169.698 154.057 169.183 153.58C168.676 153.095 168.422 152.515 168.422 151.841C168.422 151.174 168.676 150.602 169.183 150.125C169.698 149.64 170.316 149.398 171.036 149.398C171.755 149.398 172.369 149.64 172.876 150.125C173.392 150.602 173.649 151.174 173.649 151.841C173.649 152.515 173.392 153.095 172.876 153.58C172.369 154.057 171.755 154.295 171.036 154.295ZM185.209 174.341C183.444 174.341 181.917 173.966 180.629 173.216C179.349 172.458 178.36 171.405 177.663 170.057C176.966 168.701 176.618 167.129 176.618 165.341C176.618 163.538 176.966 161.962 177.663 160.614C178.36 159.258 179.349 158.205 180.629 157.455C181.917 156.697 183.444 156.318 185.209 156.318C186.974 156.318 188.497 156.697 189.777 157.455C191.065 158.205 192.057 159.258 192.754 160.614C193.451 161.962 193.8 163.538 193.8 165.341C193.8 167.129 193.451 168.701 192.754 170.057C192.057 171.405 191.065 172.458 189.777 173.216C188.497 173.966 186.974 174.341 185.209 174.341ZM185.232 170.591C186.035 170.591 186.705 170.364 187.243 169.909C187.781 169.447 188.186 168.818 188.459 168.023C188.739 167.227 188.879 166.322 188.879 165.307C188.879 164.292 188.739 163.386 188.459 162.591C188.186 161.795 187.781 161.167 187.243 160.705C186.705 160.242 186.035 160.011 185.232 160.011C184.421 160.011 183.739 160.242 183.186 160.705C182.641 161.167 182.228 161.795 181.947 162.591C181.675 163.386 181.538 164.292 181.538 165.307C181.538 166.322 181.675 167.227 181.947 168.023C182.228 168.818 182.641 169.447 183.186 169.909C183.739 170.364 184.421 170.591 185.232 170.591ZM201.788 163.909V174H196.947V156.545H201.561V159.625H201.766C202.152 158.61 202.8 157.807 203.709 157.216C204.618 156.617 205.72 156.318 207.016 156.318C208.228 156.318 209.285 156.583 210.186 157.114C211.088 157.644 211.788 158.402 212.288 159.386C212.788 160.364 213.038 161.53 213.038 162.886V174H208.197V163.75C208.205 162.682 207.932 161.848 207.379 161.25C206.826 160.644 206.065 160.341 205.095 160.341C204.444 160.341 203.868 160.481 203.368 160.761C202.875 161.042 202.489 161.451 202.209 161.989C201.936 162.519 201.796 163.159 201.788 163.909Z" fill="black"/>
</svg>
