<svg width="280" height="280" viewBox="0 0 280 280" fill="none" xmlns="http://www.w3.org/2000/svg">
<rect x="5" y="5" width="270" height="270" rx="135" fill="#FDFD6E"/>
<rect x="5" y="5" width="270" height="270" rx="135" stroke="#40B509" stroke-width="9"/>
<path d="M109.241 144V120.727H114.162V139.943H124.139V144H109.241ZM135.193 144.341C133.428 144.341 131.902 143.966 130.614 143.216C129.333 142.458 128.345 141.405 127.648 140.057C126.951 138.701 126.602 137.129 126.602 135.341C126.602 133.538 126.951 131.962 127.648 130.614C128.345 129.258 129.333 128.205 130.614 127.455C131.902 126.697 133.428 126.318 135.193 126.318C136.958 126.318 138.481 126.697 139.761 127.455C141.049 128.205 142.042 129.258 142.739 130.614C143.436 131.962 143.784 133.538 143.784 135.341C143.784 137.129 143.436 138.701 142.739 140.057C142.042 141.405 141.049 142.458 139.761 143.216C138.481 143.966 136.958 144.341 135.193 144.341ZM135.216 140.591C136.019 140.591 136.689 140.364 137.227 139.909C137.765 139.447 138.17 138.818 138.443 138.023C138.723 137.227 138.864 136.322 138.864 135.307C138.864 134.292 138.723 133.386 138.443 132.591C138.17 131.795 137.765 131.167 137.227 130.705C136.689 130.242 136.019 130.011 135.216 130.011C134.405 130.011 133.723 130.242 133.17 130.705C132.625 131.167 132.212 131.795 131.932 132.591C131.659 133.386 131.523 134.292 131.523 135.307C131.523 136.322 131.659 137.227 131.932 138.023C132.212 138.818 132.625 139.447 133.17 139.909C133.723 140.364 134.405 140.591 135.216 140.591ZM149.938 144L145.188 126.545H150.085L152.79 138.273H152.949L155.767 126.545H160.574L163.438 138.205H163.585L166.244 126.545H171.131L166.392 144H161.267L158.267 133.023H158.051L155.051 144H149.938ZM116.504 159.727V183H112.254L102.129 168.352H101.959V183H97.0384V159.727H101.357L111.402 174.364H111.607V159.727H116.504ZM128.365 183.341C126.6 183.341 125.073 182.966 123.786 182.216C122.505 181.458 121.517 180.405 120.82 179.057C120.123 177.701 119.774 176.129 119.774 174.341C119.774 172.538 120.123 170.962 120.82 169.614C121.517 168.258 122.505 167.205 123.786 166.455C125.073 165.697 126.6 165.318 128.365 165.318C130.13 165.318 131.653 165.697 132.933 166.455C134.221 167.205 135.214 168.258 135.911 169.614C136.607 170.962 136.956 172.538 136.956 174.341C136.956 176.129 136.607 177.701 135.911 179.057C135.214 180.405 134.221 181.458 132.933 182.216C131.653 182.966 130.13 183.341 128.365 183.341ZM128.388 179.591C129.191 179.591 129.861 179.364 130.399 178.909C130.937 178.447 131.342 177.818 131.615 177.023C131.895 176.227 132.036 175.322 132.036 174.307C132.036 173.292 131.895 172.386 131.615 171.591C131.342 170.795 130.937 170.167 130.399 169.705C129.861 169.242 129.191 169.011 128.388 169.011C127.577 169.011 126.895 169.242 126.342 169.705C125.797 170.167 125.384 170.795 125.104 171.591C124.831 172.386 124.695 173.292 124.695 174.307C124.695 175.322 124.831 176.227 125.104 177.023C125.384 177.818 125.797 178.447 126.342 178.909C126.895 179.364 127.577 179.591 128.388 179.591ZM140.104 183V165.545H144.945V183H140.104ZM142.536 163.295C141.816 163.295 141.198 163.057 140.683 162.58C140.176 162.095 139.922 161.515 139.922 160.841C139.922 160.174 140.176 159.602 140.683 159.125C141.198 158.64 141.816 158.398 142.536 158.398C143.255 158.398 143.869 158.64 144.376 159.125C144.892 159.602 145.149 160.174 145.149 160.841C145.149 161.515 144.892 162.095 144.376 162.58C143.869 163.057 143.255 163.295 142.536 163.295ZM163.345 170.523L158.913 170.795C158.838 170.417 158.675 170.076 158.425 169.773C158.175 169.462 157.845 169.216 157.436 169.034C157.035 168.845 156.554 168.75 155.993 168.75C155.243 168.75 154.61 168.909 154.095 169.227C153.58 169.538 153.322 169.955 153.322 170.477C153.322 170.894 153.489 171.246 153.822 171.534C154.156 171.822 154.728 172.053 155.538 172.227L158.697 172.864C160.394 173.212 161.66 173.773 162.493 174.545C163.326 175.318 163.743 176.333 163.743 177.591C163.743 178.735 163.406 179.739 162.732 180.602C162.065 181.466 161.148 182.14 159.982 182.625C158.822 183.102 157.485 183.341 155.97 183.341C153.66 183.341 151.819 182.86 150.447 181.898C149.084 180.928 148.285 179.61 148.05 177.943L152.811 177.693C152.955 178.398 153.304 178.936 153.857 179.307C154.41 179.67 155.118 179.852 155.982 179.852C156.83 179.852 157.512 179.689 158.027 179.364C158.55 179.03 158.815 178.602 158.822 178.08C158.815 177.64 158.629 177.28 158.266 177C157.902 176.712 157.341 176.492 156.584 176.341L153.561 175.739C151.857 175.398 150.588 174.807 149.754 173.966C148.929 173.125 148.516 172.053 148.516 170.75C148.516 169.629 148.819 168.663 149.425 167.852C150.038 167.042 150.898 166.417 152.004 165.977C153.118 165.538 154.421 165.318 155.913 165.318C158.118 165.318 159.853 165.784 161.118 166.716C162.391 167.648 163.133 168.917 163.345 170.523ZM174.746 183.341C172.95 183.341 171.405 182.977 170.109 182.25C168.821 181.515 167.829 180.477 167.132 179.136C166.435 177.788 166.087 176.193 166.087 174.352C166.087 172.557 166.435 170.981 167.132 169.625C167.829 168.269 168.81 167.212 170.075 166.455C171.348 165.697 172.84 165.318 174.553 165.318C175.704 165.318 176.776 165.504 177.768 165.875C178.768 166.239 179.64 166.788 180.382 167.523C181.132 168.258 181.715 169.182 182.132 170.295C182.549 171.402 182.757 172.697 182.757 174.182V175.511H168.018V172.511H178.2C178.2 171.814 178.049 171.197 177.746 170.659C177.443 170.121 177.022 169.701 176.484 169.398C175.954 169.087 175.337 168.932 174.632 168.932C173.897 168.932 173.246 169.102 172.678 169.443C172.117 169.777 171.678 170.227 171.359 170.795C171.041 171.356 170.878 171.981 170.871 172.67V175.523C170.871 176.386 171.03 177.133 171.348 177.761C171.674 178.39 172.132 178.875 172.723 179.216C173.314 179.557 174.015 179.727 174.825 179.727C175.363 179.727 175.856 179.652 176.303 179.5C176.75 179.348 177.132 179.121 177.45 178.818C177.768 178.515 178.011 178.144 178.178 177.705L182.655 178C182.428 179.076 181.962 180.015 181.257 180.818C180.56 181.614 179.659 182.235 178.553 182.682C177.454 183.121 176.185 183.341 174.746 183.341Z" fill="black"/>
</svg>
