<svg width="280" height="280" viewBox="0 0 280 280" fill="none" xmlns="http://www.w3.org/2000/svg">
<rect x="5" y="5" width="270" height="270" rx="135" fill="#FFD215"/>
<rect x="5" y="5" width="270" height="270" rx="135" stroke="#FFA9DC" stroke-width="9"/>
<path d="M33.1009 144V120.727H48.7827V124.784H38.0213V130.33H47.9759V134.386H38.0213V139.943H48.8281V144H33.1009ZM57.4446 133.909V144H52.6037V126.545H57.2173V129.625H57.4219C57.8082 128.61 58.456 127.807 59.3651 127.216C60.2741 126.617 61.3764 126.318 62.6719 126.318C63.884 126.318 64.9408 126.583 65.8423 127.114C66.7438 127.644 67.4446 128.402 67.9446 129.386C68.4446 130.364 68.6946 131.53 68.6946 132.886V144H63.8537V133.75C63.8613 132.682 63.5885 131.848 63.0355 131.25C62.4825 130.644 61.7211 130.341 60.7514 130.341C60.0999 130.341 59.5241 130.481 59.0241 130.761C58.5317 131.042 58.1454 131.451 57.8651 131.989C57.5923 132.519 57.4522 133.159 57.4446 133.909ZM77.3509 133.909V144H72.5099V120.727H77.2145V129.625H77.419C77.813 128.595 78.4493 127.788 79.3281 127.205C80.2069 126.614 81.3092 126.318 82.6349 126.318C83.8471 126.318 84.9039 126.583 85.8054 127.114C86.7145 127.636 87.419 128.39 87.919 129.375C88.4266 130.352 88.6766 131.523 88.669 132.886V144H83.8281V133.75C83.8357 132.674 83.563 131.837 83.0099 131.239C82.4645 130.64 81.6993 130.341 80.7145 130.341C80.0554 130.341 79.4721 130.481 78.9645 130.761C78.4645 131.042 78.0705 131.451 77.7827 131.989C77.5024 132.519 77.3584 133.159 77.3509 133.909ZM97.456 144.33C96.3423 144.33 95.3499 144.136 94.4787 143.75C93.6075 143.356 92.9181 142.777 92.4105 142.011C91.9105 141.239 91.6605 140.277 91.6605 139.125C91.6605 138.155 91.8385 137.341 92.1946 136.682C92.5507 136.023 93.0355 135.492 93.6491 135.091C94.2628 134.689 94.9598 134.386 95.7401 134.182C96.5279 133.977 97.3537 133.833 98.2173 133.75C99.2325 133.644 100.051 133.545 100.672 133.455C101.293 133.356 101.744 133.212 102.024 133.023C102.304 132.833 102.445 132.553 102.445 132.182V132.114C102.445 131.394 102.217 130.837 101.763 130.443C101.316 130.049 100.679 129.852 99.8537 129.852C98.9825 129.852 98.2893 130.045 97.7741 130.432C97.259 130.811 96.9181 131.288 96.7514 131.864L92.2741 131.5C92.5014 130.439 92.9484 129.523 93.6151 128.75C94.2817 127.97 95.1416 127.371 96.1946 126.955C97.2552 126.53 98.4825 126.318 99.8764 126.318C100.846 126.318 101.774 126.432 102.661 126.659C103.554 126.886 104.346 127.239 105.036 127.716C105.732 128.193 106.282 128.807 106.683 129.557C107.085 130.299 107.286 131.189 107.286 132.227V144H102.695V141.58H102.558C102.278 142.125 101.903 142.606 101.433 143.023C100.964 143.432 100.399 143.754 99.7401 143.989C99.081 144.216 98.3196 144.33 97.456 144.33ZM98.8423 140.989C99.5545 140.989 100.183 140.848 100.729 140.568C101.274 140.28 101.702 139.894 102.013 139.409C102.323 138.924 102.479 138.375 102.479 137.761V135.909C102.327 136.008 102.119 136.098 101.854 136.182C101.596 136.258 101.304 136.33 100.979 136.398C100.653 136.458 100.327 136.515 100.001 136.568C99.6757 136.614 99.3802 136.655 99.1151 136.693C98.5469 136.777 98.0507 136.909 97.6264 137.091C97.2022 137.273 96.8726 137.519 96.6378 137.83C96.4029 138.133 96.2855 138.511 96.2855 138.966C96.2855 139.625 96.5241 140.129 97.0014 140.477C97.4863 140.818 98.0999 140.989 98.8423 140.989ZM115.882 133.909V144H111.041V126.545H115.655V129.625H115.859C116.246 128.61 116.893 127.807 117.803 127.216C118.712 126.617 119.814 126.318 121.109 126.318C122.321 126.318 123.378 126.583 124.28 127.114C125.181 127.644 125.882 128.402 126.382 129.386C126.882 130.364 127.132 131.53 127.132 132.886V144H122.291V133.75C122.299 132.682 122.026 131.848 121.473 131.25C120.92 130.644 120.159 130.341 119.189 130.341C118.537 130.341 117.962 130.481 117.462 130.761C116.969 131.042 116.583 131.451 116.303 131.989C116.03 132.519 115.89 133.159 115.882 133.909ZM138.834 144.341C137.046 144.341 135.508 143.962 134.22 143.205C132.94 142.439 131.955 141.379 131.266 140.023C130.584 138.667 130.243 137.106 130.243 135.341C130.243 133.553 130.588 131.985 131.277 130.636C131.974 129.28 132.963 128.223 134.243 127.466C135.523 126.701 137.046 126.318 138.811 126.318C140.334 126.318 141.667 126.595 142.811 127.148C143.955 127.701 144.86 128.477 145.527 129.477C146.194 130.477 146.561 131.652 146.629 133H142.061C141.932 132.129 141.591 131.428 141.038 130.898C140.493 130.36 139.777 130.091 138.891 130.091C138.141 130.091 137.485 130.295 136.925 130.705C136.372 131.106 135.94 131.693 135.629 132.466C135.319 133.239 135.163 134.174 135.163 135.273C135.163 136.386 135.315 137.333 135.618 138.114C135.929 138.894 136.364 139.489 136.925 139.898C137.485 140.307 138.141 140.511 138.891 140.511C139.444 140.511 139.94 140.398 140.379 140.17C140.826 139.943 141.194 139.614 141.482 139.182C141.777 138.742 141.97 138.216 142.061 137.602H146.629C146.554 138.936 146.19 140.11 145.538 141.125C144.894 142.133 144.004 142.92 142.868 143.489C141.732 144.057 140.387 144.341 138.834 144.341ZM157.683 144.341C155.888 144.341 154.342 143.977 153.047 143.25C151.759 142.515 150.767 141.477 150.07 140.136C149.373 138.788 149.024 137.193 149.024 135.352C149.024 133.557 149.373 131.981 150.07 130.625C150.767 129.269 151.748 128.212 153.013 127.455C154.286 126.697 155.778 126.318 157.49 126.318C158.642 126.318 159.714 126.504 160.706 126.875C161.706 127.239 162.577 127.788 163.32 128.523C164.07 129.258 164.653 130.182 165.07 131.295C165.486 132.402 165.695 133.697 165.695 135.182V136.511H150.956V133.511H161.138C161.138 132.814 160.986 132.197 160.683 131.659C160.38 131.121 159.96 130.701 159.422 130.398C158.892 130.087 158.274 129.932 157.57 129.932C156.835 129.932 156.183 130.102 155.615 130.443C155.054 130.777 154.615 131.227 154.297 131.795C153.979 132.356 153.816 132.981 153.808 133.67V136.523C153.808 137.386 153.967 138.133 154.286 138.761C154.611 139.39 155.07 139.875 155.661 140.216C156.251 140.557 156.952 140.727 157.763 140.727C158.301 140.727 158.793 140.652 159.24 140.5C159.687 140.348 160.07 140.121 160.388 139.818C160.706 139.515 160.948 139.144 161.115 138.705L165.592 139C165.365 140.076 164.899 141.015 164.195 141.818C163.498 142.614 162.596 143.235 161.49 143.682C160.392 144.121 159.123 144.341 157.683 144.341ZM175.286 144.284C173.96 144.284 172.759 143.943 171.683 143.261C170.615 142.572 169.767 141.561 169.138 140.227C168.517 138.886 168.206 137.242 168.206 135.295C168.206 133.295 168.528 131.633 169.172 130.307C169.816 128.973 170.672 127.977 171.74 127.318C172.816 126.652 173.994 126.318 175.274 126.318C176.251 126.318 177.066 126.485 177.717 126.818C178.376 127.144 178.907 127.553 179.308 128.045C179.717 128.53 180.028 129.008 180.24 129.477H180.388V120.727H185.217V144H180.445V141.205H180.24C180.013 141.689 179.691 142.17 179.274 142.648C178.865 143.117 178.331 143.508 177.672 143.818C177.02 144.129 176.225 144.284 175.286 144.284ZM176.82 140.432C177.6 140.432 178.259 140.22 178.797 139.795C179.342 139.364 179.759 138.761 180.047 137.989C180.342 137.216 180.49 136.311 180.49 135.273C180.49 134.235 180.346 133.333 180.058 132.568C179.77 131.803 179.354 131.212 178.808 130.795C178.263 130.379 177.6 130.17 176.82 130.17C176.024 130.17 175.354 130.386 174.808 130.818C174.263 131.25 173.85 131.848 173.57 132.614C173.289 133.379 173.149 134.265 173.149 135.273C173.149 136.288 173.289 137.186 173.57 137.966C173.857 138.739 174.27 139.345 174.808 139.784C175.354 140.216 176.024 140.432 176.82 140.432ZM200.706 144H195.433L203.467 120.727H209.808L217.831 144H212.558L206.729 126.045H206.547L200.706 144ZM200.376 134.852H212.831V138.693H200.376V134.852ZM220.635 144V126.545H225.476V144H220.635ZM223.067 124.295C222.347 124.295 221.73 124.057 221.214 123.58C220.707 123.095 220.453 122.515 220.453 121.841C220.453 121.174 220.707 120.602 221.214 120.125C221.73 119.64 222.347 119.398 223.067 119.398C223.786 119.398 224.4 119.64 224.908 120.125C225.423 120.602 225.68 121.174 225.68 121.841C225.68 122.515 225.423 123.095 224.908 123.58C224.4 124.057 223.786 124.295 223.067 124.295ZM229.354 144V126.545H234.047V129.591H234.229C234.547 128.508 235.081 127.689 235.831 127.136C236.581 126.576 237.445 126.295 238.422 126.295C238.664 126.295 238.926 126.311 239.206 126.341C239.486 126.371 239.732 126.413 239.945 126.466V130.761C239.717 130.693 239.403 130.633 239.001 130.58C238.6 130.527 238.232 130.5 237.899 130.5C237.187 130.5 236.551 130.655 235.99 130.966C235.437 131.269 234.998 131.693 234.672 132.239C234.354 132.784 234.195 133.413 234.195 134.125V144H229.354ZM107.925 171.364C107.925 173.902 107.444 176.061 106.482 177.841C105.527 179.621 104.224 180.981 102.572 181.92C100.929 182.852 99.08 183.318 97.027 183.318C94.9588 183.318 93.1027 182.848 91.4588 181.909C89.8149 180.97 88.5156 179.61 87.5611 177.83C86.6065 176.049 86.1293 173.894 86.1293 171.364C86.1293 168.826 86.6065 166.667 87.5611 164.886C88.5156 163.106 89.8149 161.75 91.4588 160.818C93.1027 159.879 94.9588 159.409 97.027 159.409C99.08 159.409 100.929 159.879 102.572 160.818C104.224 161.75 105.527 163.106 106.482 164.886C107.444 166.667 107.925 168.826 107.925 171.364ZM102.936 171.364C102.936 169.72 102.69 168.333 102.197 167.205C101.713 166.076 101.027 165.22 100.141 164.636C99.2543 164.053 98.2164 163.761 97.027 163.761C95.8376 163.761 94.7997 164.053 93.9134 164.636C93.027 165.22 92.3376 166.076 91.8452 167.205C91.3603 168.333 91.1179 169.72 91.1179 171.364C91.1179 173.008 91.3603 174.394 91.8452 175.523C92.3376 176.652 93.027 177.508 93.9134 178.091C94.7997 178.674 95.8376 178.966 97.027 178.966C98.2164 178.966 99.2543 178.674 100.141 178.091C101.027 177.508 101.713 176.652 102.197 175.523C102.69 174.394 102.936 173.008 102.936 171.364ZM122.672 175.568V165.545H127.513V183H122.865V179.83H122.683C122.289 180.852 121.634 181.674 120.717 182.295C119.808 182.917 118.698 183.227 117.388 183.227C116.221 183.227 115.195 182.962 114.308 182.432C113.422 181.902 112.729 181.148 112.229 180.17C111.736 179.193 111.486 178.023 111.479 176.659V165.545H116.32V175.795C116.327 176.826 116.604 177.64 117.149 178.239C117.695 178.837 118.426 179.136 119.342 179.136C119.926 179.136 120.471 179.004 120.979 178.739C121.486 178.466 121.895 178.064 122.206 177.534C122.524 177.004 122.679 176.348 122.672 175.568ZM140.669 165.545V169.182H130.158V165.545H140.669ZM132.544 161.364H137.385V177.636C137.385 178.083 137.453 178.432 137.589 178.682C137.726 178.924 137.915 179.095 138.158 179.193C138.408 179.292 138.696 179.341 139.021 179.341C139.249 179.341 139.476 179.322 139.703 179.284C139.93 179.239 140.105 179.205 140.226 179.182L140.987 182.784C140.745 182.86 140.404 182.947 139.964 183.045C139.525 183.152 138.991 183.216 138.362 183.239C137.196 183.284 136.173 183.129 135.294 182.773C134.423 182.417 133.745 181.864 133.26 181.114C132.775 180.364 132.536 179.417 132.544 178.273V161.364ZM143.822 189.545V165.545H148.595V168.477H148.811C149.023 168.008 149.33 167.53 149.732 167.045C150.141 166.553 150.671 166.144 151.322 165.818C151.982 165.485 152.8 165.318 153.777 165.318C155.05 165.318 156.224 165.652 157.3 166.318C158.375 166.977 159.235 167.973 159.879 169.307C160.523 170.633 160.845 172.295 160.845 174.295C160.845 176.242 160.531 177.886 159.902 179.227C159.281 180.561 158.432 181.572 157.357 182.261C156.288 182.943 155.091 183.284 153.766 183.284C152.826 183.284 152.027 183.129 151.368 182.818C150.716 182.508 150.182 182.117 149.766 181.648C149.349 181.17 149.031 180.689 148.811 180.205H148.663V189.545H143.822ZM148.561 174.273C148.561 175.311 148.705 176.216 148.993 176.989C149.281 177.761 149.697 178.364 150.243 178.795C150.788 179.22 151.451 179.432 152.232 179.432C153.019 179.432 153.686 179.216 154.232 178.784C154.777 178.345 155.19 177.739 155.47 176.966C155.758 176.186 155.902 175.288 155.902 174.273C155.902 173.265 155.762 172.379 155.482 171.614C155.201 170.848 154.788 170.25 154.243 169.818C153.697 169.386 153.027 169.17 152.232 169.17C151.444 169.17 150.777 169.379 150.232 169.795C149.694 170.212 149.281 170.803 148.993 171.568C148.705 172.333 148.561 173.235 148.561 174.273ZM175.266 175.568V165.545H180.107V183H175.459V179.83H175.277C174.883 180.852 174.228 181.674 173.311 182.295C172.402 182.917 171.292 183.227 169.982 183.227C168.815 183.227 167.788 182.962 166.902 182.432C166.016 181.902 165.322 181.148 164.822 180.17C164.33 179.193 164.08 178.023 164.072 176.659V165.545H168.913V175.795C168.921 176.826 169.197 177.64 169.743 178.239C170.288 178.837 171.019 179.136 171.936 179.136C172.519 179.136 173.065 179.004 173.572 178.739C174.08 178.466 174.489 178.064 174.8 177.534C175.118 177.004 175.273 176.348 175.266 175.568ZM193.263 165.545V169.182H182.751V165.545H193.263ZM185.138 161.364H189.979V177.636C189.979 178.083 190.047 178.432 190.183 178.682C190.32 178.924 190.509 179.095 190.751 179.193C191.001 179.292 191.289 179.341 191.615 179.341C191.842 179.341 192.07 179.322 192.297 179.284C192.524 179.239 192.698 179.205 192.82 179.182L193.581 182.784C193.339 182.86 192.998 182.947 192.558 183.045C192.119 183.152 191.585 183.216 190.956 183.239C189.789 183.284 188.767 183.129 187.888 182.773C187.017 182.417 186.339 181.864 185.854 181.114C185.369 180.364 185.13 179.417 185.138 178.273V161.364Z" fill="black"/>
</svg>
