<svg width="280" height="280" viewBox="0 0 280 280" fill="none" xmlns="http://www.w3.org/2000/svg">
<rect x="5" y="5" width="270" height="270" rx="135" fill="#E3E5E5"/>
<rect x="5" y="5" width="270" height="270" rx="135" stroke="#FF4E00" stroke-width="9"/>
<path d="M109.241 144V120.727H114.162V139.943H124.139V144H109.241ZM135.193 144.341C133.428 144.341 131.902 143.966 130.614 143.216C129.333 142.458 128.345 141.405 127.648 140.057C126.951 138.701 126.602 137.129 126.602 135.341C126.602 133.538 126.951 131.962 127.648 130.614C128.345 129.258 129.333 128.205 130.614 127.455C131.902 126.697 133.428 126.318 135.193 126.318C136.958 126.318 138.481 126.697 139.761 127.455C141.049 128.205 142.042 129.258 142.739 130.614C143.436 131.962 143.784 133.538 143.784 135.341C143.784 137.129 143.436 138.701 142.739 140.057C142.042 141.405 141.049 142.458 139.761 143.216C138.481 143.966 136.958 144.341 135.193 144.341ZM135.216 140.591C136.019 140.591 136.689 140.364 137.227 139.909C137.765 139.447 138.17 138.818 138.443 138.023C138.723 137.227 138.864 136.322 138.864 135.307C138.864 134.292 138.723 133.386 138.443 132.591C138.17 131.795 137.765 131.167 137.227 130.705C136.689 130.242 136.019 130.011 135.216 130.011C134.405 130.011 133.723 130.242 133.17 130.705C132.625 131.167 132.212 131.795 131.932 132.591C131.659 133.386 131.523 134.292 131.523 135.307C131.523 136.322 131.659 137.227 131.932 138.023C132.212 138.818 132.625 139.447 133.17 139.909C133.723 140.364 134.405 140.591 135.216 140.591ZM149.938 144L145.188 126.545H150.085L152.79 138.273H152.949L155.767 126.545H160.574L163.438 138.205H163.585L166.244 126.545H171.131L166.392 144H161.267L158.267 133.023H158.051L155.051 144H149.938ZM141.55 171.364C141.55 173.902 141.069 176.061 140.107 177.841C139.152 179.621 137.849 180.981 136.197 181.92C134.554 182.852 132.705 183.318 130.652 183.318C128.584 183.318 126.728 182.848 125.084 181.909C123.44 180.97 122.141 179.61 121.186 177.83C120.232 176.049 119.754 173.894 119.754 171.364C119.754 168.826 120.232 166.667 121.186 164.886C122.141 163.106 123.44 161.75 125.084 160.818C126.728 159.879 128.584 159.409 130.652 159.409C132.705 159.409 134.554 159.879 136.197 160.818C137.849 161.75 139.152 163.106 140.107 164.886C141.069 166.667 141.55 168.826 141.55 171.364ZM136.561 171.364C136.561 169.72 136.315 168.333 135.822 167.205C135.338 166.076 134.652 165.22 133.766 164.636C132.879 164.053 131.841 163.761 130.652 163.761C129.463 163.761 128.425 164.053 127.538 164.636C126.652 165.22 125.963 166.076 125.47 167.205C124.985 168.333 124.743 169.72 124.743 171.364C124.743 173.008 124.985 174.394 125.47 175.523C125.963 176.652 126.652 177.508 127.538 178.091C128.425 178.674 129.463 178.966 130.652 178.966C131.841 178.966 132.879 178.674 133.766 178.091C134.652 177.508 135.338 176.652 135.822 175.523C136.315 174.394 136.561 173.008 136.561 171.364ZM150.115 159.727V183H145.195V159.727H150.115ZM158.913 159.727V183H154.072V159.727H158.913Z" fill="black"/>
</svg>
